<?xml version="1.0" encoding="UTF-8" standalone="no"?>
<!-- Created with Inkscape (http://www.inkscape.org/) -->

<svg
   xmlns:dc="http://purl.org/dc/elements/1.1/"
   xmlns:cc="http://creativecommons.org/ns#"
   xmlns:rdf="http://www.w3.org/1999/02/22-rdf-syntax-ns#"
   xmlns:svg="http://www.w3.org/2000/svg"
   xmlns="http://www.w3.org/2000/svg"
   xmlns:sodipodi="http://sodipodi.sourceforge.net/DTD/sodipodi-0.dtd"
   xmlns:inkscape="http://www.inkscape.org/namespaces/inkscape"
   width="45.37056mm"
   height="45.685844mm"
   viewBox="0 0 160.76183 161.87898"
   id="svg3406"
   version="1.1"
   inkscape:version="0.91 r13725"
   sodipodi:docname="cup.svg">
  <defs
     id="defs3408" />
  <sodipodi:namedview
     id="base"
     pagecolor="#ffffff"
     bordercolor="#666666"
     borderopacity="1.0"
     inkscape:pageopacity="0.0"
     inkscape:pageshadow="2"
     inkscape:zoom="0.35"
     inkscape:cx="-236.04765"
     inkscape:cy="98.082347"
     inkscape:document-units="px"
     inkscape:current-layer="layer1"
     showgrid="false"
     borderlayer="true"
     inkscape:showpageshadow="false"
     fit-margin-left="3"
     fit-margin-top="3"
     fit-margin-right="3"
     fit-margin-bottom="3"
     inkscape:window-width="1600"
     inkscape:window-height="836"
     inkscape:window-x="0"
     inkscape:window-y="27"
     inkscape:window-maximized="1" />
  <metadata
     id="metadata3411">
    <rdf:RDF>
      <cc:Work
         rdf:about="">
        <dc:format>image/svg+xml</dc:format>
        <dc:type
           rdf:resource="http://purl.org/dc/dcmitype/StillImage" />
        <dc:title></dc:title>
      </cc:Work>
    </rdf:RDF>
  </metadata>
  <g
     inkscape:label="Layer 1"
     inkscape:groupmode="layer"
     id="layer1"
     transform="translate(-96.761939,-468.56557)">
    <path
       style="color:#000000;font-style:normal;font-variant:normal;font-weight:normal;font-stretch:normal;font-size:medium;line-height:normal;font-family:sans-serif;text-indent:0;text-align:start;text-decoration:none;text-decoration-line:none;text-decoration-style:solid;text-decoration-color:#000000;letter-spacing:normal;word-spacing:normal;text-transform:none;direction:ltr;block-progression:tb;writing-mode:lr-tb;baseline-shift:baseline;text-anchor:start;white-space:normal;clip-rule:nonzero;display:inline;overflow:visible;visibility:visible;opacity:1;isolation:auto;mix-blend-mode:normal;color-interpolation:sRGB;color-interpolation-filters:linearRGB;solid-color:#000000;solid-opacity:1;fill:#4a120f;fill-opacity:1;fill-rule:nonzero;stroke:none;stroke-width:10;stroke-linecap:round;stroke-linejoin:round;stroke-miterlimit:4;stroke-dasharray:none;stroke-dashoffset:0;stroke-opacity:1;color-rendering:auto;image-rendering:auto;shape-rendering:auto;text-rendering:auto;enable-background:accumulate"
       d="m 152.96172,493.1713 c -0.58703,0.053 -1.91716,0.98484 -4.01563,2.79883 -2.64981,2.29058 -3.39453,3.57208 -3.39453,5.83984 0,2.44446 0.93482,3.77445 5.90234,8.38867 6.23744,5.79383 7.20275,8.23798 4.60547,11.67188 -0.71514,0.94552 -1.3126,2.02842 -1.32812,2.40625 -0.0514,1.2547 5.09922,-1.9429 6.97851,-4.33203 3.33304,-4.23727 2.60465,-5.6304 -7.72461,-14.80665 -3.1612,-2.80833 -3.56773,-5.43879 -1.47265,-9.49023 0.88125,-1.70415 1.03624,-2.52953 0.44922,-2.47656 z m 12.04492,0 c -0.58703,0.053 -1.91716,0.98484 -4.01563,2.79883 -2.64981,2.29058 -3.39453,3.57208 -3.39453,5.83984 0,2.44446 0.93482,3.77445 5.90235,8.38867 6.23744,5.79383 7.20274,8.23798 4.60547,11.67188 -0.71514,0.94552 -1.31262,2.02842 -1.32813,2.40625 -0.0514,1.2547 5.09923,-1.9429 6.97852,-4.33203 3.33304,-4.23727 2.60465,-5.6304 -7.72461,-14.80665 -3.1612,-2.80833 -3.56969,-5.43879 -1.47461,-9.49023 0.88125,-1.70415 1.03819,-2.52953 0.45117,-2.47656 z m 12.04492,0 c -0.58702,0.053 -1.9191,0.98484 -4.01758,2.79883 -2.64981,2.29058 -3.39453,3.57208 -3.39453,5.83984 0,2.44446 0.93677,3.77445 5.9043,8.38867 6.23744,5.79383 7.20276,8.23798 4.60547,11.67188 -0.71514,0.94552 -1.31261,2.02842 -1.32813,2.40625 -0.0514,1.2547 5.09923,-1.9429 6.97852,-4.33203 3.33305,-4.23727 2.60465,-5.6304 -7.72461,-14.80665 -3.16121,-2.80833 -3.56969,-5.43879 -1.47461,-9.49023 0.88125,-1.70415 1.03819,-2.52953 0.45117,-2.47656 z m -45.97852,40.45117 c 0,0 0.54594,21.45801 3,31.81445 3.33775,14.08571 15.7461,40.4043 15.7461,40.4043 l 31.87109,0 c 0,0 9.09668,-17.39656 14.41992,-31.5332 6.93198,3.96958 15.80726,2.9279 21.6211,-2.7168 6.18471,-6.00478 7.26794,-15.62715 2.57422,-22.85742 -4.04581,-6.23221 -11.46159,-9.2555 -18.55664,-7.92188 0.19751,-4.22818 0.25195,-7.18945 0.25195,-7.18945 l -70.92774,0 z m 7.66407,4.28516 a 2.0002,2.0002 0 0 1 0.19922,0 2.0002,2.0002 0 0 1 1.91015,1.94921 c 0,0 0.66086,15.37495 2.21875,22.31446 2.05647,9.16035 9.82227,27.55664 9.82227,27.55664 a 2.0002,2.0002 0 1 1 -3.67969,1.56445 c 0,0 -7.77847,-18.13973 -10.04687,-28.24414 -1.76983,-7.88356 -2.3125,-23.03516 -2.3125,-23.03516 a 2.0002,2.0002 0 0 1 1.88867,-2.10546 z m 66.12695,12.57226 c 2.77339,-0.0964 5.45974,1.24234 7.05469,3.69922 2.1266,3.27584 1.64782,7.51768 -1.1543,10.23828 -2.80212,2.7206 -7.05593,3.07197 -10.26758,0.84961 a 5.0005,5.0005 0 0 0 -1.30664,-0.66602 c 0.84667,-3.6616 1.44131,-8.47278 1.85938,-13.23632 a 5.0005,5.0005 0 0 0 1.04883,-0.29883 c 0.90639,-0.36303 1.84116,-0.55381 2.76562,-0.58594 z"
       id="path4279"
       inkscape:connector-curvature="0" />
  </g>
</svg>
